<svg id="instagram_1_" data-name="instagram (1)" xmlns="http://www.w3.org/2000/svg" width="23.348" height="23.352" viewBox="0 0 23.348 23.352">
  <path id="Path_75" data-name="Path 75" d="M23.737,6.866a8.533,8.533,0,0,0-.543-2.833A5.982,5.982,0,0,0,19.777.616,8.555,8.555,0,0,0,16.945.073C15.694.014,15.3,0,12.127,0S8.56.014,7.314.068A8.535,8.535,0,0,0,4.481.611,5.7,5.7,0,0,0,2.41,1.962,5.749,5.749,0,0,0,1.064,4.028,8.556,8.556,0,0,0,.522,6.861C.462,8.111.449,8.508.449,11.679s.014,3.567.068,4.813a8.533,8.533,0,0,0,.543,2.833,5.981,5.981,0,0,0,3.417,3.417,8.556,8.556,0,0,0,2.833.543c1.245.055,1.642.068,4.813.068s3.567-.014,4.813-.068a8.531,8.531,0,0,0,2.833-.543,5.973,5.973,0,0,0,3.417-3.417,8.562,8.562,0,0,0,.543-2.833c.055-1.245.068-1.642.068-4.813s0-3.567-.059-4.813Zm-2.1,9.534a6.4,6.4,0,0,1-.4,2.167,3.874,3.874,0,0,1-2.217,2.217,6.423,6.423,0,0,1-2.167.4c-1.232.055-1.6.068-4.717.068s-3.49-.014-4.717-.068a6.4,6.4,0,0,1-2.167-.4,3.593,3.593,0,0,1-1.341-.871,3.631,3.631,0,0,1-.871-1.341,6.424,6.424,0,0,1-.4-2.167c-.055-1.232-.068-1.6-.068-4.717s.014-3.49.068-4.717a6.4,6.4,0,0,1,.4-2.167,3.549,3.549,0,0,1,.876-1.341,3.625,3.625,0,0,1,1.341-.871,6.428,6.428,0,0,1,2.167-.4c1.232-.055,1.6-.068,4.717-.068s3.49.014,4.717.068a6.4,6.4,0,0,1,2.167.4,3.591,3.591,0,0,1,1.341.871A3.63,3.63,0,0,1,21.233,4.8a6.427,6.427,0,0,1,.4,2.167c.055,1.232.068,1.6.068,4.717s-.014,3.481-.068,4.712Zm0,0" transform="translate(-0.449 0)" fill="#7007fa"/>
  <path id="Path_76" data-name="Path 76" d="M130.948,124.5a6,6,0,1,0,6,6A6,6,0,0,0,130.948,124.5Zm0,9.89a3.891,3.891,0,1,1,3.891-3.891A3.892,3.892,0,0,1,130.948,134.39Zm0,0" transform="translate(-119.269 -118.82)" fill="#7007fa"/>
  <path id="Path_77" data-name="Path 77" d="M365.251,90a1.4,1.4,0,1,1-1.4-1.4A1.4,1.4,0,0,1,365.251,90Zm0,0" transform="translate(-345.935 -84.56)" fill="#7007fa"/>
</svg>
