<svg xmlns="http://www.w3.org/2000/svg" width="27.818" height="19.482" viewBox="0 0 27.818 19.482">
  <g id="Group_349" data-name="Group 349" transform="translate(-1300 -760)">
    <path id="Path_922" data-name="Path 922" d="M29.02,3.451A3.5,3.5,0,0,0,26.558.989C24.4.4,15.711.4,15.711.4S7.023.418,4.864,1.007A3.5,3.5,0,0,0,2.4,3.469C1.75,7.3,1.5,13.149,2.42,16.831a3.5,3.5,0,0,0,2.462,2.462c2.159.589,10.847.589,10.847.589s8.688,0,10.847-.589a3.5,3.5,0,0,0,2.462-2.462C29.727,12.99,29.939,7.149,29.02,3.451Z" transform="translate(1298.183 759.6)" fill="#7007fa"/>
    <path id="Path_923" data-name="Path 923" d="M64.2,39.949l7.208-4.175L64.2,31.6Z" transform="translate(1246.929 733.966)" fill="#fff"/>
  </g>
</svg>
